<svg width="14" height="11" viewBox="0 0 14 11" fill="none" xmlns="http://www.w3.org/2000/svg">
<path d="M2.08929 1.90735e-06H11.9107C12.2985 -0.000591278 12.6784 0.114952 13.0066 0.333259C13.3349 0.551565 13.5979 0.863708 13.7653 1.23356C13.9613 1.67239 14.0368 2.16061 13.9832 2.64261C13.9296 3.1246 13.749 3.58098 13.4621 3.95972L8.55137 10.2509C8.35865 10.486 8.12039 10.6746 7.85272 10.8039C7.58506 10.9331 7.29425 11 7 11C6.70575 11 6.41494 10.9331 6.14728 10.8039C5.87961 10.6746 5.64135 10.486 5.44864 10.2509L0.537924 3.95972C0.250973 3.58098 0.0703983 3.1246 0.0167789 2.64261C-0.0368414 2.16061 0.0386515 1.67239 0.234652 1.23356C0.402084 0.863708 0.665135 0.551565 0.993358 0.333259C1.32158 0.114952 1.70155 -0.000591278 2.08929 1.90735e-06Z" fill="black"/>
</svg>
