<svg width="16" height="15" viewBox="0 0 16 15" fill="none" xmlns="http://www.w3.org/2000/svg">
<path d="M8.23022 14.6704C8.02091 14.8814 7.73717 15 7.44134 15C7.1455 15 6.86176 14.8814 6.65245 14.6704L0.32648 8.28296C0.117424 8.07162 0 7.78512 0 7.48642C0 7.18771 0.117424 6.90122 0.32648 6.68988L6.65245 0.302489C6.8642 0.10349 7.14411 -0.00487518 7.43334 0.000169754C7.72258 0.00521469 7.99861 0.123277 8.20343 0.329541C8.40771 0.536347 8.52464 0.815063 8.52963 1.1071C8.53463 1.39915 8.42731 1.68177 8.23022 1.89558L3.80948 6.35923L14.8837 6.35923C15.1797 6.35923 15.4637 6.47799 15.673 6.68938C15.8824 6.90077 16 7.18747 16 7.48642C16 7.78537 15.8824 8.07207 15.673 8.28346C15.4637 8.49485 15.1797 8.61361 14.8837 8.61361L3.80948 8.61361L8.23022 13.0773C8.43928 13.2886 8.5567 13.5751 8.5567 13.8738C8.5567 14.1725 8.43928 14.459 8.23022 14.6704Z" fill="black"/>
</svg>
