<svg width="16" height="15" viewBox="0 0 16 15" fill="none" xmlns="http://www.w3.org/2000/svg">
<path d="M7.76966 0.329161C7.97897 0.118076 8.26271 -0.000488281 8.55854 -0.000488281C8.85438 -0.000488281 9.13811 0.118076 9.34743 0.329161L15.6734 6.71655C15.8825 6.9279 15.9999 7.21439 15.9999 7.51309C15.9999 7.8118 15.8825 8.09829 15.6734 8.30964L9.34743 14.697C9.13568 14.896 8.85577 15.0044 8.56653 14.9993C8.2773 14.9943 8.00127 14.8762 7.79645 14.67C7.59217 14.4632 7.47524 14.1844 7.47024 13.8924C7.46525 13.6004 7.57257 13.3177 7.76966 13.1039L12.1904 8.64028L1.11623 8.64028C0.820151 8.64028 0.536204 8.52152 0.326849 8.31013C0.117493 8.09874 -0.00012207 7.81204 -0.00012207 7.51309C-0.00012207 7.21414 0.117493 6.92744 0.326849 6.71605C0.536204 6.50466 0.820151 6.38591 1.11623 6.38591L12.1904 6.38591L7.76966 1.92225C7.5606 1.7109 7.44318 1.42441 7.44318 1.12571C7.44318 0.827 7.5606 0.540509 7.76966 0.329161Z" fill="black"/>
</svg>
